<svg width="301" height="300" viewBox="0 0 301 300" fill="none" xmlns="http://www.w3.org/2000/svg">
<rect x="0.015625" width="300" height="300" rx="48" fill="#3B03A9"/>
<g clip-path="url(#clip0_778_2945)">
<path d="M169.035 98.1516C150.119 105.221 116.731 155.74 114.56 178.421C112.417 200.856 120.974 217.558 134.049 224.246C147.124 230.935 197.476 242.395 200.125 182.911C200.73 169.268 212.745 160.816 216.376 162.23C225.582 165.821 209.883 171.344 212.348 183.103C214.378 192.798 214.75 219.433 196.773 242.626C184.655 258.255 159.734 266.607 129.309 262.243C103.925 258.603 80.1944 240.279 74.3729 215.018C67.7216 186.164 77.1977 162.468 86.0436 152.312C98.2067 138.352 137.292 100.528 124.415 88.6355C143.338 98.1099 169.035 98.1516 169.035 98.1516Z" fill="white"/>
<path d="M154.191 52.8616C163.319 54.1708 169.686 62.6691 168.377 71.7973C167.067 80.9254 158.569 87.2918 149.441 85.9826C140.313 84.6735 133.946 76.1751 135.256 67.047C136.565 57.9188 145.063 51.5524 154.191 52.8616ZM156.566 36.3011C147.781 35.042 138.855 37.3244 131.753 42.6462C124.651 47.9679 119.953 55.8932 118.694 64.6784C117.435 73.4637 119.717 82.3893 125.039 89.4917C130.361 96.5942 138.286 101.292 147.071 102.551C155.857 103.81 164.782 101.527 171.885 96.2057C178.987 90.8839 183.685 82.9586 184.944 74.1734C186.203 65.3881 183.92 56.4625 178.599 49.3601C173.277 42.2577 165.352 37.5602 156.566 36.3011Z" fill="white"/>
<path d="M135.917 96.8214C135.917 96.8214 144.269 101.704 153.089 100.961C153.089 100.961 136.099 116.622 126.469 132.338C116.839 148.054 105.336 165.759 106.355 188.445C107.232 208.014 115.197 229.6 142.267 234.821C169.338 240.042 187.313 231.56 192.756 223.965C198.206 216.37 200.783 217.071 196.18 228.14C194.447 232.306 179.9 256.477 137.486 253.071C106.334 250.571 86.4261 229.962 83.2026 201.012C79.9792 172.061 100.156 149.366 109.589 138.834C133.543 112.098 135.917 96.8214 135.917 96.8214Z" fill="white"/>
<path d="M141.316 99.2098C138.058 98.0732 135.905 96.8181 135.905 96.8181C135.905 96.8181 135.456 99.6201 133.098 104.893C131.029 109.511 127.47 116.038 121.448 124.274C126.523 118.393 131.451 112.387 136.228 106.261C138.855 107.314 141.806 108.238 145.062 108.962C147.653 106.214 150.327 103.545 153.078 100.958C148.72 101.32 144.497 100.315 141.316 99.2098ZM143.513 239.676C172.113 244.65 188.098 236.376 198.431 219.625C198.051 218.029 195.908 219.54 192.746 223.955C187.296 231.549 169.326 240.039 142.257 234.811C117.838 230.099 108.985 212.07 106.84 194.219L106.663 194.227C108.337 207.724 110.6 233.948 143.513 239.676Z" fill="white"/>
<path d="M154.192 52.8594C162.327 54.0261 168.223 60.902 168.504 68.8386C168.598 68.9806 168.706 69.1245 168.78 69.2703C169.965 60.1108 165.751 50.1837 154.044 49.4106C144.032 48.7521 137.79 56.2128 135.875 63.5302C136.03 63.3495 136.233 63.2029 136.418 63.0469C137.828 59.6155 140.34 56.7514 143.559 54.9067C146.777 53.0619 150.519 52.3416 154.192 52.8594Z" fill="white"/>
<path d="M168.378 71.7973C167.069 80.9254 158.571 87.2918 149.442 85.9826C140.314 84.6734 133.948 76.1751 135.257 67.047C135.35 65.8584 135.555 64.6813 135.869 63.5315C135.404 64.0475 135.067 64.6664 134.887 65.3376C132.508 75.0898 138.231 88.4985 151.023 89.3394C162.663 90.103 168.732 79.3724 169.292 71.1779C169.301 70.5077 169.124 69.8481 168.781 69.2725C168.672 70.1223 168.577 70.974 168.378 71.7973Z" fill="white"/>
<path d="M136.409 63.0482C136.224 63.2109 136.02 63.3575 135.867 63.5315C135.552 64.6814 135.347 65.8585 135.254 67.047C135.458 65.6295 135.883 64.3114 136.409 63.0482ZM168.376 71.7974C168.575 70.9741 168.67 70.1224 168.778 69.2726C168.698 69.1259 168.597 68.9829 168.502 68.8409C168.531 69.8185 168.519 70.7971 168.376 71.7974Z" fill="white"/>
<path d="M155.139 39.6311C164.638 40.5269 175.513 48.5091 177.943 54.9487C180.342 61.3164 173.663 57.3568 172.04 54.1022C169.934 49.8858 159.016 46.2106 153.32 45.9955C147.625 45.7803 137.462 48.4804 133.961 52.8593C130.288 57.4501 125.23 57.9281 128.648 52.0974C132.236 45.9866 142.952 38.4848 155.139 39.6311Z" fill="white"/>
<path d="M130.297 259.063C90.2271 252.045 77.1776 222.456 73.4688 210.465C73.7329 211.97 74.0226 213.485 74.3766 215.023C80.2047 240.285 103.936 258.609 129.313 262.248C159.731 266.611 184.658 258.261 196.777 242.631C198.204 240.787 199.479 238.922 200.681 237.046C190.652 247.485 170.967 266.187 130.297 259.063Z" fill="white"/>
<path d="M206.524 169.997C211.296 166.422 216.873 165.059 213.043 169.323C209.219 173.595 206.801 176.459 206.458 181.629C206.115 186.799 202.354 182.244 202.749 179.488C203.15 176.74 203.373 172.358 206.524 169.997Z" fill="white"/>
<path d="M163.284 188.135C162.796 191.539 159.64 193.903 156.236 193.415C152.832 192.927 150.468 189.771 150.956 186.367C151.444 182.963 154.6 180.599 158.004 181.087C161.408 181.575 163.772 184.731 163.284 188.135Z" fill="white"/>
<path d="M153.868 209.919C158.033 215.319 162.404 218.786 166.248 219.337C167.509 219.518 168.74 219.424 169.817 218.971C173.548 217.476 175.521 212.686 175.345 205.423C175.327 204.134 175.242 202.839 175.1 201.464C176.481 201.257 177.732 201.029 178.982 200.803C186.047 199.178 190.272 196.131 190.832 192.222C191.402 188.246 188.205 184.134 181.871 180.657C180.745 180.022 179.609 179.454 178.332 178.931C178.854 177.654 179.3 176.432 179.679 175.201C181.841 168.139 181.306 162.921 178.144 160.437C177.235 159.699 176.08 159.263 174.822 159.082C171.044 158.54 165.806 160.629 160.294 164.641C156.196 159.251 151.823 155.784 147.981 155.233C146.721 155.052 145.49 155.146 144.412 155.599C140.681 157.094 138.708 161.884 138.884 169.147C138.902 170.436 138.987 171.731 139.129 173.106C137.748 173.313 136.497 173.541 135.247 173.767C128.182 175.392 123.958 178.439 123.397 182.348C122.827 186.324 126.024 190.436 132.358 193.913C133.484 194.548 134.621 195.116 135.898 195.639C135.375 196.916 134.929 198.138 134.55 199.369C132.407 206.299 132.942 211.518 136.047 213.925C136.956 214.665 138.111 215.099 139.369 215.28C143.195 215.963 148.366 213.864 153.868 209.919ZM151.438 200.44C152.622 200.678 153.882 200.859 155.139 201.039C156.397 201.219 157.657 201.4 158.86 201.504C157.439 202.923 155.969 204.201 154.512 205.412C153.452 203.84 152.403 202.201 151.438 200.44ZM144.199 192.435C144.7 193.656 145.146 194.803 145.723 195.967C143.707 195.407 141.833 194.799 140.034 194.136C140.889 192.433 141.817 190.67 142.877 188.929C143.256 190.064 143.689 191.278 144.2 192.432L144.199 192.435ZM142.646 175.909C144.558 175.778 146.528 175.722 148.62 175.751C147.805 176.717 146.991 177.682 146.165 178.712C145.339 179.743 144.591 180.719 143.901 181.77C143.316 179.724 142.917 177.776 142.646 175.909ZM144.99 185.513C146.107 183.848 147.291 182.19 148.61 180.554C149.852 178.973 151.225 177.413 152.598 175.851C154.606 176.004 156.603 176.222 158.659 176.517C160.78 176.822 162.76 177.174 164.663 177.581C165.609 179.476 166.421 181.349 167.169 183.216C167.974 185.157 168.645 187.081 169.249 188.992C168.132 190.657 166.947 192.315 165.629 193.951C164.387 195.533 163.014 197.093 161.641 198.655C159.632 198.501 157.636 198.283 155.58 197.988C153.459 197.684 151.479 197.332 149.575 196.925C148.63 195.029 147.817 193.156 147.07 191.29C146.265 189.346 145.594 187.425 144.99 185.513ZM171.419 185.651L170.106 182.08C169.605 180.859 169.16 179.712 168.582 178.548C170.598 179.108 172.473 179.716 174.271 180.379C173.41 182.149 172.479 183.907 171.419 185.651ZM170.392 192.809C170.923 194.779 171.319 196.729 171.657 198.606C169.745 198.736 167.775 198.793 165.683 198.764C166.497 197.797 167.312 196.833 168.138 195.802C168.878 194.893 169.635 193.853 170.392 192.812L170.392 192.809ZM168.617 216.027C168.038 216.283 167.357 216.32 166.628 216.215C163.381 215.749 159.718 212.518 156.312 207.971C158.529 206.193 160.717 204.137 162.944 201.819C166.097 202 169.145 201.964 172.026 201.701C172.187 202.942 172.214 204.164 172.242 205.385C172.361 211.151 171.05 215.09 168.617 216.027ZM177.074 181.591C184.194 184.777 188.169 188.661 187.741 191.645C187.37 194.229 183.951 196.377 178.288 197.663C177.17 197.908 175.922 198.136 174.681 198.295C174.211 195.453 173.548 192.518 172.632 189.478C174.366 186.818 175.891 184.196 177.074 181.591ZM174.452 162.14C175.181 162.245 175.757 162.462 176.308 162.88C178.315 164.454 178.538 168.544 176.793 174.111C176.433 175.208 175.996 176.363 175.55 177.586C172.853 176.589 169.935 175.697 166.867 174.92C165.45 172.079 163.86 169.484 162.232 167.152C166.77 163.81 171.205 161.675 174.452 162.14ZM162.798 174.065C161.614 173.827 160.354 173.647 159.097 173.466C157.839 173.286 156.579 173.105 155.376 173.001C156.797 171.582 158.267 170.304 159.724 169.093C160.784 170.666 161.823 172.371 162.798 174.065ZM145.619 158.478C146.198 158.222 146.879 158.186 147.608 158.29C150.855 158.756 154.518 161.987 157.924 166.534C155.707 168.312 153.519 170.365 151.292 172.686C148.139 172.505 145.091 172.541 142.21 172.804C142.049 171.563 142.022 170.341 141.994 169.12C141.874 163.354 143.177 159.482 145.619 158.478ZM137.164 192.914C130.044 189.729 126.07 185.845 126.498 182.861C126.868 180.276 130.288 178.129 135.95 176.845C137.069 176.6 138.316 176.372 139.557 176.213C140.028 179.055 140.69 181.99 141.606 185.03C139.873 187.691 138.335 190.379 137.161 192.917L137.164 192.914ZM137.51 200.404C137.87 199.306 138.306 198.151 138.753 196.929C141.45 197.926 144.368 198.818 147.436 199.595C148.853 202.436 150.443 205.031 152.071 207.363C147.534 210.702 143.101 212.841 139.854 212.375C139.124 212.27 138.548 212.054 137.998 211.635C135.924 210.052 135.777 205.904 137.513 200.404L137.51 200.404Z" fill="white"/>
</g>
<defs>
<clipPath id="clip0_778_2945">
<rect width="240.912" height="240.912" fill="white" transform="translate(48.2188 14) rotate(8.16187)"/>
</clipPath>
</defs>
</svg>
